<svg width="1000" height="1000" viewBox="0 0 1000 1000" fill="none" xmlns="http://www.w3.org/2000/svg">
<path d="M434.253 70.0311C419.578 99.7098 394.061 151.62 346.969 247.227C332.622 276.14 317.728 306.585 313.786 314.799C309.076 324.765 305.9 329.912 304.805 329.912C297.577 330.131 274.031 333.088 272.06 334.183C270.636 334.949 269.651 336.483 269.651 338.016C269.651 340.425 270.308 340.754 275.455 341.411C285.859 342.725 285.859 342.835 277.974 348.091C274.031 350.829 270.746 353.458 270.746 354.005C270.746 354.553 271.951 356.305 273.484 357.948C275.017 359.59 276.003 361.671 275.674 362.547C275.346 363.314 275.127 364.3 275.127 364.519C275.127 364.738 274.36 364.957 273.484 364.957C270.855 364.957 271.622 368.242 274.579 369.337C276.112 369.885 277.317 371.09 277.317 371.966C277.317 372.842 277.974 373.718 278.741 374.047C279.398 374.266 277.864 375.142 275.127 375.908C269.76 377.442 266.365 380.508 266.365 383.684C266.365 385.546 267.241 385.765 272.936 385.765C277.864 385.765 279.726 386.203 280.164 387.407C281.369 390.364 278.412 392.117 271.184 392.993C263.737 393.759 263.408 393.978 262.861 399.345C262.532 402.521 262.751 402.63 270.965 404.82C280.055 407.339 282.355 408.763 281.369 411.391C280.821 412.706 279.069 413.144 274.36 413.144C269.322 413.144 267.679 413.582 266.694 415.224C265.599 416.977 265.818 417.415 268.118 418.51C270.089 419.386 270.746 420.481 270.527 422.233C270.308 424.205 269.322 424.752 265.489 425.3C259.794 426.067 258.042 427.709 257.275 433.404L256.618 437.785L279.836 437.018C316.085 435.704 369.858 434.39 370.296 434.718C370.515 434.828 343.683 514.008 310.5 610.491L250.376 786.045L346.75 786.373C431.186 786.592 444.109 786.483 450.352 784.949L457.47 783.197L597.65 857.011L737.83 930.824L740.678 928.853C742.32 927.758 743.854 925.896 744.073 924.91C744.401 923.815 732.573 852.74 717.898 766.879C692.71 619.252 691.396 610.6 692.929 607.534C693.914 605.672 745.387 554.966 807.373 494.842C929.592 376.237 923.569 382.698 917.217 376.784C914.26 374.156 909.551 373.389 758.638 352.91C673.106 341.301 602.469 331.226 601.593 330.569C600.279 329.583 485.287 99.3813 464.917 56.8892C459.003 44.733 457.251 41.8856 455.389 41.8856C454.075 41.8856 452.104 41.557 450.79 41.2285C448.818 40.6809 446.957 43.8568 434.253 70.0311ZM521.537 199.917C559.101 275.921 589.984 338.235 590.094 338.454C590.203 338.563 658.869 348.858 742.868 361.124C826.866 373.499 896.19 383.793 896.957 384.122C901.666 385.874 897.066 390.583 788.207 495.828C727.755 554.2 678.035 602.715 677.706 603.591C677.049 604.906 683.182 640.608 720.417 854.93C725.564 884.39 729.617 909.14 729.398 910.016C729.179 911.111 727.974 910.892 724.141 908.921C721.403 907.497 659.746 875.409 587.027 837.517L454.732 768.741L451.994 763.813C450.461 761.184 449.256 758.775 449.256 758.556C449.256 758.337 450.352 758.118 451.775 758.118C459.003 758.118 471.16 753.19 471.16 750.342C471.16 749.795 468.312 748.59 464.917 747.605C461.413 746.619 458.346 745.633 458.127 745.414C457.908 745.195 458.565 743.99 459.66 742.786C461.632 740.705 461.522 740.486 458.675 735.229L455.827 729.863L461.741 727.344L467.765 724.935L466.231 720.992C465.465 718.802 464.479 714.859 464.26 712.231C463.932 709.603 462.617 705.989 461.413 704.346C460.098 702.594 459.113 699.746 459.113 697.775V694.27L466.231 694.818C472.802 695.366 473.35 695.256 474.993 692.737C475.978 691.204 476.635 689.89 476.416 689.671C476.197 689.561 473.35 687.918 470.064 686.276L464.041 683.1L419.468 682.771C394.827 682.552 374.786 682.333 374.786 682.224C374.786 682.114 401.398 603.92 433.705 508.422C481.016 369.118 492.406 334.402 491.529 332.759C490.325 330.788 488.025 330.788 426.258 331.445C390.994 331.774 352.445 332.431 340.507 332.869L318.933 333.526L324.847 321.041C328.023 314.141 343.245 283.149 358.468 252.156C373.8 221.163 401.07 165.638 419.14 128.731C437.21 91.8247 452.213 61.7079 452.542 61.7079C452.87 61.7079 483.863 123.913 521.537 199.917ZM385.737 424.862C385.737 425.847 378.728 446.655 369.31 473.377C365.586 483.891 362.301 493.638 361.972 494.952C361.644 496.376 360.877 497.471 360.33 497.471C359.673 497.471 359.563 496.595 360.001 495.499C360.439 494.514 361.206 492.104 361.644 490.352C362.082 488.49 365.586 478.415 369.31 467.901C373.034 457.388 376.319 447.751 376.648 446.546C376.867 445.341 377.524 443.37 378.071 442.165C379.385 438.989 382.452 429.352 382.452 428.257C382.452 427.819 368.434 427.381 351.24 427.381C331.856 427.381 320.028 426.943 320.028 426.286C320.028 425.19 330.98 424.752 366.353 424.314C376.976 424.205 385.737 424.424 385.737 424.862ZM438.962 472.392C434.691 485.534 425.163 513.131 423.958 515.76C423.411 517.184 422.535 519.374 421.987 520.688C421.111 522.659 412.35 548.615 409.174 558.69C408.955 559.566 408.407 559.895 408.079 559.566C407.531 559.128 418.154 526.383 423.411 512.036C424.177 509.736 425.711 505.356 426.587 502.399C429.872 492.104 438.086 468.449 439.51 465.273C442.028 459.797 441.809 464.068 438.962 472.392ZM355.949 510.503C355.182 512.912 354.197 514.993 353.759 514.993C352.664 514.993 352.664 514.555 353.868 511.489C354.416 510.065 355.182 507.984 355.511 506.889C355.949 505.794 356.497 505.027 356.825 505.356C357.154 505.684 356.716 507.984 355.949 510.503ZM349.707 526.711C348.393 528.902 348.173 528.245 349.159 525.397C349.597 524.412 350.145 523.864 350.364 524.193C350.692 524.412 350.364 525.616 349.707 526.711ZM405.669 568.765C404.465 572.051 402.931 576.87 402.055 579.607C399.974 586.616 397.784 591.983 397.127 591.326C396.579 590.778 402.165 573.146 405.231 566.247C407.75 560.223 408.079 561.975 405.669 568.765ZM334.594 568.108C334.265 569.094 333.717 569.642 333.498 569.313C333.17 568.984 333.279 568.327 333.717 567.67C334.703 565.918 335.36 566.247 334.594 568.108ZM393.294 605.563C391.432 611.477 388.475 620.128 386.723 624.728C384.971 629.437 383.547 633.927 383.547 634.803C383.547 635.789 382.561 638.636 381.466 641.155C380.262 643.784 378.29 649.04 377.086 652.983C375.881 656.926 372.376 667.439 369.31 676.419C366.353 685.509 364.272 693.285 364.71 693.723C365.258 694.27 369.091 694.161 373.253 693.504C381.904 692.299 405.779 692.19 409.831 693.394C412.24 694.161 412.021 694.38 407.64 694.927C400.522 696.023 362.411 697.775 361.315 697.118C360.22 696.461 360.111 696.899 366.572 678.719C369.31 670.834 372.486 661.525 373.581 657.911C375.552 651.559 384.971 624.071 388.147 615.2C389.132 612.791 390.447 608.848 391.104 606.439C393.732 598.006 396.032 592.421 396.47 593.625C396.579 594.173 395.265 599.539 393.294 605.563Z" fill="#CF0E16"/>
<path d="M661.181 551.244L683.289 465H692.272L714.45 551.244H704.905L685.885 473.501H689.535L670.585 551.244H661.181ZM671.357 531.284L673.814 518.717H700.343L702.8 531.284H671.357Z" fill="white"/>
<path d="M636.688 551.244V474.61L638.864 478.553H620.476V465H662.025V478.553H643.636L645.742 474.61V551.244H636.688Z" fill="white"/>
<path d="M568.73 551.244V465H577.714V526.233L604.103 465H612.595V551.244H603.612V490.134L577.223 551.244H568.73Z" fill="white"/>
<path d="M518.9 537.691L516.864 541.634V465H525.848V541.634L523.672 537.691H546.061L543.885 541.634V465H552.869V551.244H489.773V465H498.757V541.634L496.651 537.691H518.9ZM551.535 569.601V547.301L553.711 551.244H543.675V537.691H559.957V569.601H551.535Z" fill="white"/>
<path d="M428.9 551.244L451.008 465H459.992L482.17 551.244H472.625L453.605 473.501H457.255L438.305 551.244H428.9ZM439.077 531.284L441.534 518.717H468.063L470.52 531.284H439.077Z" fill="white"/>
<path d="M621.586 662.95L636.946 599.705H643.187L658.596 662.95H651.964L638.75 605.939H641.286L628.12 662.95H621.586ZM628.656 648.314L630.363 639.098H648.795L650.502 648.314H628.656Z" fill="white"/>
<path d="M615.026 662.95L603.469 632.141L608.589 626.268L622.194 662.95H615.026ZM592.449 662.95V599.705H598.691V662.95H592.449ZM596.789 636.297V626.178H608.297V636.297H596.789ZM609.174 632.683L603.372 631.237L615.026 599.705H621.755L609.174 632.683Z" fill="white"/>
<path d="M552.403 662.95V599.705H558.645V644.609L576.979 599.705H582.879V662.95H576.638V618.137L558.303 662.95H552.403Z" fill="white"/>
<path d="M536.441 599.705H542.78V662.95H536.441V599.705ZM518.789 662.95H512.45V599.705H518.789V662.95ZM536.929 635.845H518.253V625.816H536.929V635.845Z" fill="white"/>
<path d="M476.118 662.95V599.705H491.381C495.217 599.705 498.207 601.121 500.353 603.952C502.498 606.722 503.571 610.728 503.571 615.968C503.571 621.148 502.547 625.154 500.499 627.985C498.451 630.756 495.753 632.141 492.405 632.141L493.282 628.888C497.086 628.888 500.028 630.304 502.108 633.135C504.189 635.966 505.229 640.062 505.229 645.422C505.229 650.904 504.14 655.21 501.962 658.343C499.784 661.414 496.566 662.95 492.307 662.95H476.118ZM482.36 653.915H492.112C494.323 653.915 495.997 653.162 497.134 651.657C498.272 650.09 498.841 647.711 498.841 644.519C498.841 641.327 498.272 639.008 497.134 637.562C495.997 636.056 494.323 635.303 492.112 635.303H482.36V653.915ZM482.36 626.72H490.844C492.892 626.72 494.453 625.967 495.525 624.461C496.598 622.895 497.134 620.666 497.134 617.775C497.134 614.763 496.598 612.505 495.525 610.999C494.453 609.493 492.892 608.74 490.844 608.74H482.36V626.72Z" fill="white"/>
<path d="M442.582 621.118C446.646 621.118 449.783 622.805 451.993 626.178C454.204 629.551 455.309 634.61 455.309 641.357C455.309 648.464 454.09 653.855 451.652 657.529C449.246 661.143 445.882 662.95 441.558 662.95H426.881V599.705H433.122V621.118H442.582ZM441.266 653.915C443.704 653.915 445.589 652.861 446.922 650.753C448.287 648.645 448.97 645.573 448.97 641.537C448.97 637.562 448.304 634.671 446.971 632.864C445.638 630.996 443.736 630.063 441.266 630.063H433.122V653.915H441.266ZM460.234 662.95V599.705H466.475V662.95H460.234Z" fill="white"/>
<path d="M253.483 662.95V599.705H259.744V644.609L278.135 599.705H284.053V662.95H277.792V618.137L259.402 662.95H253.483Z" fill="white"/>
<path d="M218.758 662.95V599.705H232.844C235.877 599.705 238.469 600.609 240.621 602.416C242.806 604.223 244.485 606.813 245.659 610.186C246.833 613.559 247.42 617.564 247.42 622.202C247.42 626.84 246.833 630.846 245.659 634.219C244.485 637.592 242.806 640.182 240.621 641.989C238.469 643.796 235.877 644.7 232.844 644.7H222.279L225.116 639.188V662.95H218.758ZM225.116 640.453L222.279 634.761H232.551C235.355 634.761 237.458 633.677 238.86 631.508C240.295 629.28 241.012 626.178 241.012 622.202C241.012 618.167 240.295 615.065 238.86 612.896C237.458 610.728 235.355 609.644 232.551 609.644H222.279L225.116 603.861V640.453Z" fill="white"/>
<path d="M178.827 662.95V599.705H209.103V662.95H202.842V606.752L204.31 609.644H183.62L185.088 606.752V662.95H178.827Z" fill="white"/>
</svg>
